<svg width="106" height="137" viewBox="0 0 106 137" fill="none" xmlns="http://www.w3.org/2000/svg">
<path d="M52.7702 0C70.2152 12.9703 81.8098 16.7125 105.529 14.2379V83.6871C105.961 100.057 89.9931 114.992 52.7702 137C15.248 114.577 -0.476787 99.493 0.0109876 83.6871V14.2379C23.5407 16.5353 35.0481 13.3311 52.7702 0Z" fill="#001F3F"/>
<path d="M52.8796 14.6023C59.5675 19.3598 65.6291 22.6864 72.406 24.5798C78.8792 26.3884 85.7596 26.8208 94.1345 26.2302V81.5037L94.1355 81.5564C94.2804 87.0491 91.7528 92.762 84.7976 99.6687C78.1014 106.318 67.6998 113.666 52.8796 122.528C37.9384 113.498 27.5129 106.034 20.8328 99.3621C13.883 92.421 11.44 86.8024 11.6013 81.574L11.6033 81.5125V26.2087C19.8747 26.7644 26.6965 26.3983 33.1521 24.6462C39.9483 22.8017 46.0638 19.4955 52.8796 14.6023Z" fill="#001F3F" stroke="#FDFDFD" stroke-width="8"/>
</svg>
