<svg xmlns="http://www.w3.org/2000/svg" viewBox="0 0 106 137" fill="none">
  <path d="M49.7521 2.21376C51.557 0.926053 53.9881 0.918269 55.7983 2.1984C70.2619 12.4265 81.1822 15.9603 99.9936 14.7153C102.954 14.5194 105.529 16.82 105.529 19.7867V83.6871C105.951 99.6755 90.7276 114.296 55.3351 135.475C53.7632 136.415 51.7795 136.41 50.2121 135.462C14.5322 113.882 -0.465552 99.129 0.0109876 83.6871V19.7499C0.0109876 16.7964 2.56468 14.4994 5.51222 14.6861C24.1938 15.869 35.0608 12.6955 49.7521 2.21376Z" fill="#181818"/>
  <path d="M52.1531 15.1248C52.5883 14.8174 53.1762 14.8174 53.6072 15.1189C59.8164 19.467 65.5213 22.5641 71.821 24.4119C78.1271 26.2615 84.7901 26.7895 92.8386 26.3171C93.6324 26.2707 94.1345 26.8774 94.1345 27.4148V81.5037L94.1355 81.5564C94.2765 86.903 91.8871 92.4528 85.3523 99.1111C78.7667 105.821 68.3645 113.247 53.3708 122.238C53.0723 122.417 52.6878 122.416 52.3894 122.235C37.2773 113.076 26.8546 105.535 20.2859 98.8083C13.7542 92.1194 11.4442 86.6642 11.6013 81.574L11.6033 81.5125V27.3777C11.6033 26.8385 12.1012 26.2472 12.8738 26.2908C20.8403 26.7405 27.4606 26.2794 33.7693 24.4744C40.0804 22.6686 45.8329 19.5881 52.1531 15.1248Z" fill="#181818" stroke="#FDFDFD" stroke-width="8"/>
</svg>