<svg width="142" height="142" fill="none" xmlns="http://www.w3.org/2000/svg"><rect x="26" y="26" width="90" height="90" rx="10" stroke="#001F3F" stroke-width="4"/><rect x="41" y="41" width="60" height="60" rx="10" stroke="#001F3F" stroke-width="4"/><path d="M38 2a2 2 0 1 0-4 0h4Zm-2 0h-2v23h4V2h-2ZM52 2a2 2 0 1 0-4 0h4Zm-2 0h-2v23h4V2h-2ZM66 2a2 2 0 1 0-4 0h4Zm-2 0h-2v23h4V2h-2ZM80 2a2 2 0 1 0-4 0h4Zm-2 0h-2v23h4V2h-2ZM94 2a2 2 0 1 0-4 0h4Zm-2 0h-2v23h4V2h-2ZM108 2a2 2 0 1 0-4 0h4Zm-2 0h-2v23h4V2h-2ZM140 38a2 2 0 1 0 0-4v4Zm0-2v-2h-23v4h23v-2ZM140 52a2 2 0 1 0 0-4v4Zm0-2v-2h-23v4h23v-2ZM140 66a2 2 0 1 0 0-4v4Zm0-2v-2h-23v4h23v-2ZM140 80a2 2 0 1 0 0-4v4Zm0-2v-2h-23v4h23v-2ZM140 94a2 2 0 1 0 0-4v4Zm0-2v-2h-23v4h23v-2ZM140 108a2 2 0 1 0 0-4v4Zm0-2v-2h-23v4h23v-2ZM104 140a2 2 0 1 0 4 0h-4Zm2 0h2v-23h-4v23h2ZM90 140a2 2 0 1 0 4 0h-4Zm2 0h2v-23h-4v23h2ZM76 140a2 2 0 1 0 4 0h-4Zm2 0h2v-23h-4v23h2ZM62 140a2 2 0 1 0 4 0h-4Zm2 0h2v-23h-4v23h2ZM48 140a2 2 0 1 0 4 0h-4Zm2 0h2v-23h-4v23h2ZM34 140a2 2 0 1 0 4 0h-4Zm2 0h2v-23h-4v23h2ZM2 104a2 2 0 1 0 0 4v-4Zm0 2v2h23v-4H2v2ZM2 90a2 2 0 1 0 0 4v-4Zm0 2v2h23v-4H2v2ZM2 76a2 2 0 1 0 0 4v-4Zm0 2v2h23v-4H2v2ZM2 62a2 2 0 1 0 0 4v-4Zm0 2v2h23v-4H2v2ZM2 48a2 2 0 1 0 0 4v-4Zm0 2v2h23v-4H2v2ZM2 34a2 2 0 1 0 0 4v-4Zm0 2v2h23v-4H2v2Z" fill="#001F3F"/></svg>