<svg width="106" height="137" fill="none" xmlns="http://www.w3.org/2000/svg"><path d="M52.77 0c17.445 12.97 29.04 16.712 52.759 14.238v69.45c.432 16.369-15.536 31.304-52.759 53.312C15.248 114.577-.477 99.493.011 83.687v-69.45c23.53 2.298 35.037-.906 52.76-14.237Z" fill="#001F3F"/><path d="M52.88 14.602c6.688 4.758 12.75 8.084 19.526 9.978 6.473 1.808 13.354 2.24 21.728 1.65v55.274l.001.052c.145 5.493-2.382 11.206-9.337 18.113-6.697 6.649-17.098 13.997-31.918 22.859-14.942-9.03-25.367-16.494-32.047-23.166-6.95-6.941-9.393-12.56-9.232-17.788l.002-.061V26.209c8.272.555 15.094.19 21.55-1.563 6.795-1.844 12.91-5.15 19.727-10.044Z" fill="#001F3F" stroke="#FDFDFD" stroke-width="8"/></svg>